<svg xmlns="http://www.w3.org/2000/svg" width="928" height="568" fill="none" viewBox="0 0 928 568">
  <path fill="#fff" d="M513.89 24v14h12.933v-1.54H515.64v-4.7775h10.43v-1.47h-10.43V25.54h11.358V24H513.89Zm14.437 3.535 5.145 5.4075L528.607 38h2.17l4.358-4.5675L539.387 38h2.293l-4.848-5.1975 5.128-5.2675h-2.135l-4.673 4.7775-4.532-4.7775h-2.293Zm21.99 10.7275c2.782 0 4.637-1.575 4.952-4.2175h-1.487c-.403 1.7675-1.61 2.7475-3.465 2.7475-1.82 0-2.835-.98-2.835-2.7475v-5.04h6.965v-1.47h-6.965v-2.66h-1.68v2.66h-2.993v1.47h2.993v5.04c0 2.66 1.68 4.2175 4.515 4.2175ZM557.568 38h1.68v-4.9175c0-2.8525 1.242-4.2175 3.832-4.2175 2.065 0 3.045.7875 3.045 2.45v.35h1.75v-.6125c0-2.4325-1.557-3.78-4.357-3.78-1.838 0-3.22.5775-3.938 1.6275h-.332v-1.365h-1.68V38Zm17.005.245c2.45 0 4.392-.6475 5.18-1.715h.332V38h1.645v-6.4575c0-2.8-2.047-4.27-5.967-4.27-3.938 0-6.213 1.4-6.58 4.0775h1.645c.49-1.75 2.1-2.6075 4.935-2.6075 2.87 0 4.287.9975 4.322 3.045l-6.44.455c-2.467.175-3.797 1.1725-3.797 2.905 0 2.0475 1.522 3.0975 4.725 3.0975Zm-2.923-3.0625c0-.945.718-1.4525 2.293-1.5575l6.142-.42v.455c0 1.89-2.082 3.1325-5.215 3.1325-2.03 0-3.22-.595-3.22-1.61Zm19.272 3.08c2.783 0 4.638-1.575 4.953-4.2175h-1.488c-.402 1.7675-1.61 2.7475-3.465 2.7475-1.82 0-2.835-.98-2.835-2.7475v-5.04h6.965v-1.47h-6.965v-2.66h-1.68v2.66h-2.992v1.47h2.992v5.04c0 2.66 1.68 4.2175 4.515 4.2175Zm6.481-5.5825c0 3.5875 2.503 5.5825 7.035 5.5825 3.675 0 6.143-1.2425 7.088-3.4825h-1.838c-1.032 1.33-2.572 2.0475-5.25 2.0475-3.22 0-5.022-1.2075-5.285-3.5175h11.935c.018-.1575.035-.4375.035-.7175 0-3.4125-2.415-5.32-6.755-5.32s-6.965 2.03-6.965 5.4075Zm1.785-.805c.368-2.03 2.188-3.1675 5.18-3.1675 3.063 0 4.795 1.085 5.11 3.1675h-10.29ZM613.913 38h1.68v-4.9175c0-2.8525 1.242-4.2175 3.832-4.2175 2.065 0 3.045.7875 3.045 2.45v.35h1.75v-.6125c0-2.4325-1.557-3.78-4.357-3.78-1.838 0-3.22.5775-3.938 1.6275h-.332v-1.365h-1.68V38Zm12.595 0h1.68v-4.9175c0-2.8525 1.242-4.2175 3.832-4.2175 2.065 0 3.045.7875 3.045 2.45v.35h1.75v-.6125c0-2.4325-1.557-3.78-4.357-3.78-1.838 0-3.22.5775-3.938 1.6275h-.332v-1.365h-1.68V38Zm11.825-5.32c0 3.5875 2.503 5.5825 7.035 5.5825 3.675 0 6.143-1.2425 7.088-3.4825h-1.838c-1.032 1.33-2.572 2.0475-5.25 2.0475-3.22 0-5.022-1.2075-5.285-3.5175h11.935c.018-.1575.035-.4375.035-.7175 0-3.4125-2.415-5.32-6.755-5.32s-6.965 2.03-6.965 5.4075Zm1.785-.805c.368-2.03 2.188-3.1675 5.18-3.1675 3.063 0 4.795 1.085 5.11 3.1675h-10.29Zm15.81 2.905h-1.663c.175 2.24 2.415 3.4825 6.248 3.4825 3.92 0 6.107-1.2075 6.107-3.3775 0-1.8025-1.225-2.6425-4.06-2.8l-3.832-.21c-1.855-.105-2.66-.49-2.66-1.2425 0-1.2425 1.505-1.89 4.445-1.89 2.747 0 4.375.805 4.812 2.3625h1.628c-.158-2.4675-2.468-3.8325-6.44-3.8325-3.973 0-6.16 1.2075-6.16 3.3775 0 1.8375 1.225 2.66 4.06 2.835l3.832.21c1.855.0875 2.66.455 2.66 1.225 0 1.225-1.487 1.8725-4.392 1.8725-2.59 0-4.13-.6825-4.585-2.0125Zm19.931 3.4825c2.782 0 4.637-1.575 4.952-4.2175h-1.487c-.403 1.7675-1.61 2.7475-3.465 2.7475-1.82 0-2.835-.98-2.835-2.7475v-5.04h6.965v-1.47h-6.965v-2.66h-1.68v2.66h-2.993v1.47h2.993v5.04c0 2.66 1.68 4.2175 4.515 4.2175ZM683.11 38h1.68v-4.9175c0-2.8525 1.242-4.2175 3.832-4.2175 2.065 0 3.045.7875 3.045 2.45v.35h1.75v-.6125c0-2.4325-1.557-3.78-4.357-3.78-1.838 0-3.22.5775-3.938 1.6275h-.332v-1.365h-1.68V38Zm12.595-10.465V38h1.68V27.535h-1.68Zm-.613-2.8875c0 .735.578 1.1725 1.453 1.1725.875 0 1.452-.4375 1.452-1.1725 0-.735-.577-1.19-1.452-1.19s-1.453.455-1.453 1.19Zm10.133 13.5975c2.45 0 4.392-.6475 5.18-1.715h.332V38h1.645v-6.4575c0-2.8-2.047-4.27-5.967-4.27-3.938 0-6.213 1.4-6.58 4.0775h1.645c.49-1.75 2.1-2.6075 4.935-2.6075 2.87 0 4.287.9975 4.322 3.045l-6.44.455c-2.467.175-3.797 1.1725-3.797 2.905 0 2.0475 1.522 3.0975 4.725 3.0975Zm-2.923-3.0625c0-.945.718-1.4525 2.293-1.5575l6.142-.42v.455c0 1.89-2.082 3.1325-5.215 3.1325-2.03 0-3.22-.595-3.22-1.61Zm13.33-12.0225V38h1.68V23.16h-1.68ZM521.065 49.2725c-2.45 0-4.375.63-5.337 1.7675h-.333v-1.505h-1.68V63.5h1.68v-4.9875h.333c.962 1.12 2.887 1.75 5.337 1.75 4.218 0 6.755-2.065 6.755-5.495s-2.537-5.495-6.755-5.495Zm-5.74 5.495c0-2.5725 1.943-4.025 5.39-4.025 3.448 0 5.39 1.4525 5.39 4.025 0 2.59-1.942 4.025-5.39 4.025-3.447 0-5.39-1.435-5.39-4.025ZM530.48 60h1.68v-4.9175c0-2.8525 1.243-4.2175 3.833-4.2175 2.065 0 3.045.7875 3.045 2.45v.35h1.75v-.6125c0-2.4325-1.558-3.78-4.358-3.78-1.837 0-3.22.5775-3.937 1.6275h-.333v-1.365h-1.68V60Zm19.035.2625c4.498 0 7.21-2.065 7.21-5.495s-2.712-5.495-7.21-5.495c-4.48 0-7.21 2.065-7.21 5.495s2.73 5.495 7.21 5.495Zm-5.495-5.495c0-2.5725 1.978-4.025 5.495-4.025 3.518 0 5.495 1.4525 5.495 4.025 0 2.59-1.977 4.025-5.495 4.025-3.517 0-5.495-1.435-5.495-4.025Zm21.344 5.495c2.45 0 4.375-.63 5.338-1.75h.332V60h1.68V45.16h-1.68v5.88h-.332c-.963-1.1375-2.888-1.7675-5.338-1.7675-4.217 0-6.755 2.065-6.755 5.495s2.538 5.495 6.755 5.495Zm-5.04-5.495c0-2.5725 1.943-4.025 5.39-4.025 3.448 0 5.39 1.4525 5.39 4.025 0 2.59-1.942 4.025-5.39 4.025-3.447 0-5.39-1.435-5.39-4.025ZM588.149 60V49.535h-1.68v5.285c0 2.625-1.4 3.85-4.41 3.85-3.01 0-4.41-1.225-4.41-3.85v-5.285h-1.68v5.7225c0 3.15 2.1 5.005 5.653 5.005 2.1 0 3.692-.5775 4.515-1.6275h.332V60h1.68Zm9.71.2625c3.885 0 6.265-1.435 6.632-3.9725h-1.61c-.49 1.61-2.275 2.5025-5.022 2.5025-3.413 0-5.338-1.4175-5.338-3.9725 0-2.6075 1.978-4.0775 5.46-4.0775 2.923 0 4.795 1.015 5.25 2.8175h1.593c-.28-2.7475-2.748-4.2875-6.825-4.2875-4.498 0-7.193 2.0825-7.193 5.5475 0 3.395 2.643 5.4425 7.053 5.4425Zm15.434 0c2.783 0 4.638-1.575 4.953-4.2175h-1.488c-.402 1.7675-1.61 2.7475-3.465 2.7475-1.82 0-2.835-.98-2.835-2.7475v-5.04h6.965v-1.47h-6.965v-2.66h-1.68v2.66h-2.992v1.47h2.992v5.04c0 2.66 1.68 4.2175 4.515 4.2175Zm18.721 0c2.45 0 4.375-.63 5.338-1.75h.332V60h1.68V45.16h-1.68v5.88h-.332c-.963-1.1375-2.888-1.7675-5.338-1.7675-4.217 0-6.755 2.065-6.755 5.495s2.538 5.495 6.755 5.495Zm-5.04-5.495c0-2.5725 1.943-4.025 5.39-4.025 3.448 0 5.39 1.4525 5.39 4.025 0 2.59-1.942 4.025-5.39 4.025-3.447 0-5.39-1.435-5.39-4.025Zm15.051-.0875c0 3.5875 2.502 5.5825 7.035 5.5825 3.675 0 6.142-1.2425 7.087-3.4825h-1.837c-1.033 1.33-2.573 2.0475-5.25 2.0475-3.22 0-5.023-1.2075-5.285-3.5175h11.935c.017-.1575.035-.4375.035-.7175 0-3.4125-2.415-5.32-6.755-5.32s-6.965 2.03-6.965 5.4075Zm1.785-.805c.367-2.03 2.187-3.1675 5.18-3.1675 3.062 0 4.795 1.085 5.11 3.1675h-10.29Zm12.982-4.34L662.129 60h2.853l5.32-10.465h-1.768l-4.917 9.6775-4.918-9.6775h-1.907Zm14.439 5.145c0 3.5875 2.503 5.5825 7.035 5.5825 3.675 0 6.143-1.2425 7.088-3.4825h-1.838c-1.032 1.33-2.572 2.0475-5.25 2.0475-3.22 0-5.022-1.2075-5.285-3.5175h11.935c.018-.1575.035-.4375.035-.7175 0-3.4125-2.415-5.32-6.755-5.32s-6.965 2.03-6.965 5.4075Zm1.785-.805c.368-2.03 2.188-3.1675 5.18-3.1675 3.063 0 4.795 1.085 5.11 3.1675h-10.29Zm14.725-8.715V60h1.68V45.16h-1.68Zm11.55 15.1025c4.497 0 7.21-2.065 7.21-5.495s-2.713-5.495-7.21-5.495c-4.48 0-7.21 2.065-7.21 5.495s2.73 5.495 7.21 5.495Zm-5.495-5.495c0-2.5725 1.977-4.025 5.495-4.025 3.517 0 5.495 1.4525 5.495 4.025 0 2.59-1.978 4.025-5.495 4.025-3.518 0-5.495-1.435-5.495-4.025Zm22.708-5.495c-2.45 0-4.375.63-5.337 1.7675h-.333v-1.505h-1.68V63.5h1.68v-4.9875h.333c.962 1.12 2.887 1.75 5.337 1.75 4.218 0 6.755-2.065 6.755-5.495s-2.537-5.495-6.755-5.495Zm-5.74 5.495c0-2.5725 1.943-4.025 5.39-4.025 3.448 0 5.39 1.4525 5.39 4.025 0 2.59-1.942 4.025-5.39 4.025-3.447 0-5.39-1.435-5.39-4.025Zm15.156-5.2325V60h1.68v-5.46c0-2.5025 1.26-3.675 3.937-3.675 2.678 0 3.955 1.1725 3.955 3.675V60h1.68v-5.46c0-2.5025 1.26-3.675 3.938-3.675 2.677 0 3.955 1.1725 3.955 3.675V60h1.68v-5.8975c0-3.0275-1.96-4.83-5.25-4.83-2.03 0-3.553.63-4.41 1.8025h-.823c-.857-1.155-2.327-1.8025-4.287-1.8025-1.978 0-3.36.56-4.043 1.6275h-.332v-1.365h-1.68Zm23.292 5.145c0 3.5875 2.503 5.5825 7.035 5.5825 3.675 0 6.143-1.2425 7.088-3.4825h-1.838c-1.032 1.33-2.572 2.0475-5.25 2.0475-3.22 0-5.022-1.2075-5.285-3.5175h11.935c.018-.1575.035-.4375.035-.7175 0-3.4125-2.415-5.32-6.755-5.32s-6.965 2.03-6.965 5.4075Zm1.785-.805c.368-2.03 2.188-3.1675 5.18-3.1675 3.063 0 4.795 1.085 5.11 3.1675h-10.29Zm14.725-4.34V60h1.68v-5.285c0-2.625 1.4-3.85 4.41-3.85 3.01 0 4.41 1.225 4.41 3.85V60h1.68v-5.7225c0-3.15-2.1-5.005-5.653-5.005-2.1 0-3.692.5775-4.515 1.6275h-.332v-1.365h-1.68Zm21.375 10.7275c2.782 0 4.637-1.575 4.952-4.2175h-1.487c-.403 1.7675-1.61 2.7475-3.465 2.7475-1.82 0-2.835-.98-2.835-2.7475v-5.04h6.965v-1.47h-6.965v-2.66h-1.68v2.66h-2.993v1.47h2.993v5.04c0 2.66 1.68 4.2175 4.515 4.2175Zm-267.099 22c3.885 0 6.265-1.435 6.632-3.9725h-1.61c-.49 1.61-2.275 2.5025-5.022 2.5025-3.413 0-5.338-1.4175-5.338-3.9725 0-2.6075 1.978-4.0775 5.46-4.0775 2.923 0 4.795 1.015 5.25 2.8175h1.593c-.28-2.7475-2.748-4.2875-6.825-4.2875-4.498 0-7.193 2.0825-7.193 5.5475 0 3.395 2.643 5.4425 7.053 5.4425Zm15.709 0c4.497 0 7.21-2.065 7.21-5.495s-2.713-5.495-7.21-5.495c-4.48 0-7.21 2.065-7.21 5.495s2.73 5.495 7.21 5.495Zm-5.495-5.495c0-2.5725 1.977-4.025 5.495-4.025 3.517 0 5.495 1.4525 5.495 4.025 0 2.59-1.978 4.025-5.495 4.025-3.518 0-5.495-1.435-5.495-4.025Zm15.358-5.2325V82h1.68v-5.285c0-2.625 1.4-3.85 4.41-3.85 3.01 0 4.41 1.225 4.41 3.85V82h1.68v-5.7225c0-3.15-2.1-5.005-5.652-5.005-2.1 0-3.693.5775-4.515 1.6275h-.333v-1.365h-1.68Zm16.518 7.245h-1.663c.175 2.24 2.415 3.4825 6.248 3.4825 3.92 0 6.107-1.2075 6.107-3.3775 0-1.8025-1.225-2.6425-4.06-2.8l-3.832-.21c-1.855-.105-2.66-.49-2.66-1.2425 0-1.2425 1.505-1.89 4.445-1.89 2.747 0 4.375.805 4.812 2.3625h1.628c-.158-2.4675-2.468-3.8325-6.44-3.8325-3.973 0-6.16 1.2075-6.16 3.3775 0 1.8375 1.225 2.66 4.06 2.835l3.832.21c1.855.0875 2.66.455 2.66 1.225 0 1.225-1.487 1.8725-4.392 1.8725-2.59 0-4.13-.6825-4.585-2.0125ZM587.654 82V71.535h-1.68v5.285c0 2.625-1.4 3.85-4.41 3.85-3.01 0-4.41-1.225-4.41-3.85v-5.285h-1.68v5.7225c0 3.15 2.1 5.005 5.652 5.005 2.1 0 3.693-.5775 4.515-1.6275h.333V82h1.68Zm3.427-14.84V82h1.68V67.16h-1.68Zm11.48 15.1025c2.782 0 4.637-1.575 4.952-4.2175h-1.487c-.403 1.7675-1.61 2.7475-3.465 2.7475-1.82 0-2.835-.98-2.835-2.7475v-5.04h6.965v-1.47h-6.965v-2.66h-1.68v2.66h-2.993v1.47h2.993v5.04c0 2.66 1.68 4.2175 4.515 4.2175Zm11.66-.0175c2.45 0 4.393-.6475 5.18-1.715h.333V82h1.645v-6.4575c0-2.8-2.048-4.27-5.968-4.27-3.937 0-6.212 1.4-6.58 4.0775h1.645c.49-1.75 2.1-2.6075 4.935-2.6075 2.87 0 4.288.9975 4.323 3.045l-6.44.455c-2.468.175-3.798 1.1725-3.798 2.905 0 2.0475 1.523 3.0975 4.725 3.0975Zm-2.922-3.0625c0-.945.717-1.4525 2.292-1.5575l6.143-.42v.455c0 1.89-2.083 3.1325-5.215 3.1325-2.03 0-3.22-.595-3.22-1.61Zm13.329-7.6475V82h1.68v-5.285c0-2.625 1.4-3.85 4.41-3.85 3.01 0 4.41 1.225 4.41 3.85V82h1.68v-5.7225c0-3.15-2.1-5.005-5.652-5.005-2.1 0-3.693.5775-4.515 1.6275h-.333v-1.365h-1.68Zm21.715 10.7275c3.885 0 6.265-1.435 6.632-3.9725h-1.61c-.49 1.61-2.275 2.5025-5.022 2.5025-3.413 0-5.338-1.4175-5.338-3.9725 0-2.6075 1.978-4.0775 5.46-4.0775 2.923 0 4.795 1.015 5.25 2.8175h1.593c-.28-2.7475-2.748-4.2875-6.825-4.2875-4.498 0-7.193 2.0825-7.193 5.5475 0 3.395 2.643 5.4425 7.053 5.4425Zm7.407-10.7275 5.512 9.59h1.348l-.963 1.9075c-.472.8925-.98 1.26-1.732 1.26-.823 0-1.348-.42-1.698-1.26h-1.505c.175 1.75 1.295 2.73 3.168 2.73 1.435 0 2.397-.6125 3.167-2.0125l6.213-12.215h-1.785l-4.585 9.0475-5.18-9.0475h-1.96ZM9.065 414.263c4.2175 0 6.755-2.066 6.755-5.496 0-3.43-2.5375-5.495-6.755-5.495-2.45 0-4.375.63-5.3375 1.768H3.395v-5.88h-1.68V414h1.68v-1.488h.3325c.9625 1.12 2.8875 1.751 5.3375 1.751Zm-5.74-5.496c0-2.572 1.9425-4.025 5.39-4.025s5.39 1.453 5.39 4.025c0 2.59-1.9425 4.025-5.39 4.025s-5.39-1.435-5.39-4.025ZM30.4851 414v-10.465h-1.68v5.285c0 2.625-1.4 3.85-4.41 3.85-3.01 0-4.41-1.225-4.41-3.85v-5.285h-1.68v5.722c0 3.15 2.1 5.006 5.6525 5.006 2.1 0 3.6925-.578 4.515-1.628h.3325V414h1.68Zm3.4272-10.465V414h1.68v-10.465h-1.68Zm-.6125-2.888c0 .735.5775 1.173 1.4525 1.173.875 0 1.4525-.438 1.4525-1.173 0-.735-.5775-1.19-1.4525-1.19-.875 0-1.4525.455-1.4525 1.19Zm5.7223-1.487V414h1.68v-14.84h-1.68Zm11.0949 15.103c2.45 0 4.375-.631 5.3375-1.751h.3325V414h1.68v-14.84h-1.68v5.88h-.3325c-.9625-1.138-2.8875-1.768-5.3375-1.768-4.2175 0-6.755 2.065-6.755 5.495s2.5375 5.496 6.755 5.496Zm-5.04-5.496c0-2.572 1.9425-4.025 5.39-4.025s5.39 1.453 5.39 4.025c0 2.59-1.9425 4.025-5.39 4.025s-5.39-1.435-5.39-4.025Zm15.8201-5.232V414h1.68v-10.465h-1.68Zm-.6125-2.888c0 .735.5775 1.173 1.4525 1.173.875 0 1.4525-.438 1.4525-1.173 0-.735-.5775-1.19-1.4525-1.19-.875 0-1.4525.455-1.4525 1.19Zm5.7224 2.888V414h1.68v-5.285c0-2.625 1.4-3.85 4.41-3.85 3.01 0 4.41 1.225 4.41 3.85V414h1.68v-5.723c0-3.15-2.1-5.005-5.6525-5.005-2.1 0-3.6925.578-4.515 1.628h-.3325v-1.365h-1.68Zm28.3121 9.485v-9.485h-1.68v1.435h-.3325c-.7525-1.085-2.5725-1.698-5.0575-1.698-4.0425 0-6.4925 1.925-6.4925 5.145 0 3.168 2.45 5.093 6.4925 5.093 2.485 0 4.305-.595 5.0575-1.645h.3325v1.155c0 2.17-1.7675 3.273-5.2675 3.273-2.625 0-4.165-.613-4.8825-1.873h-1.7325c.49 2.205 2.73 3.343 6.615 3.343 4.585 0 6.9475-1.61 6.9475-4.743Zm-11.8125-4.603c0-2.345 1.82-3.675 5.04-3.675 3.325 0 5.18 1.33 5.18 3.675 0 2.363-1.855 3.675-5.18 3.675-3.22 0-5.04-1.312-5.04-3.675Zm27.8624 5.846c4.498 0 7.21-2.066 7.21-5.496 0-3.43-2.712-5.495-7.21-5.495-4.48 0-7.21 2.065-7.21 5.495s2.73 5.496 7.21 5.496Zm-5.495-5.496c0-2.572 1.978-4.025 5.495-4.025 3.518 0 5.495 1.453 5.495 4.025 0 2.59-1.977 4.025-5.495 4.025-3.517 0-5.495-1.435-5.495-4.025ZM132.238 414v-10.465h-1.68v5.285c0 2.625-1.4 3.85-4.41 3.85-3.01 0-4.41-1.225-4.41-3.85v-5.285h-1.68v5.722c0 3.15 2.1 5.006 5.653 5.006 2.1 0 3.692-.578 4.515-1.628h.332V414h1.68Zm9.797.263c2.783 0 4.638-1.576 4.953-4.218H145.5c-.402 1.767-1.61 2.747-3.465 2.747-1.82 0-2.835-.98-2.835-2.747v-5.04h6.965v-1.47H139.2v-2.66h-1.68v2.66h-2.992v1.47h2.992v5.04c0 2.66 1.68 4.218 4.515 4.218Zm6.481-6.651v1.575h9.957v-1.575h-9.957ZM8.155 436.263c4.4975 0 7.21-2.066 7.21-5.496 0-3.43-2.7125-5.495-7.21-5.495-4.48 0-7.21 2.065-7.21 5.495s2.73 5.496 7.21 5.496Zm-5.495-5.496c0-2.572 1.9775-4.025 5.495-4.025s5.495 1.453 5.495 4.025c0 2.59-1.9775 4.025-5.495 4.025s-5.495-1.435-5.495-4.025ZM21.2119 436v-8.995h6.4925v-1.47h-6.4925v-.42c0-1.838.9625-2.748 2.9225-2.748 1.61 0 2.555.63 2.975 1.908h1.5225c-.28-2.205-1.82-3.378-4.4975-3.378-3.0275 0-4.6025 1.453-4.6025 4.218v.42h-2.9925v1.47h2.9925V436h1.68Zm7.1623-6.388v1.575h9.9575v-1.575h-9.9575Zm19.0004 6.651c2.7825 0 4.6375-1.576 4.9525-4.218h-1.4875c-.4025 1.767-1.61 2.747-3.465 2.747-1.82 0-2.835-.98-2.835-2.747v-5.04h6.965v-1.47h-6.965v-2.66h-1.68v2.66h-2.9925v1.47h2.9925v5.04c0 2.66 1.68 4.218 4.515 4.218Zm7.2506-15.103V436h1.68v-5.285c0-2.625 1.4-3.85 4.41-3.85 3.01 0 4.41 1.225 4.41 3.85V436h1.68v-5.723c0-3.15-2.1-5.005-5.6525-5.005-2.1 0-3.6925.578-4.515 1.628h-.3325v-5.74h-1.68Zm15.4321 4.375V436h1.68v-10.465h-1.68Zm-.6125-2.888c0 .735.5775 1.173 1.4525 1.173.875 0 1.4525-.438 1.4525-1.173 0-.735-.5775-1.19-1.4525-1.19-.875 0-1.4525.455-1.4525 1.19Zm6.8073 10.133h-1.6625c.175 2.24 2.415 3.483 6.2475 3.483 3.92 0 6.1075-1.208 6.1075-3.378 0-1.803-1.225-2.643-4.06-2.8l-3.8325-.21c-1.855-.105-2.66-.49-2.66-1.243 0-1.242 1.505-1.89 4.445-1.89 2.7475 0 4.375.805 4.8125 2.363h1.6275c-.1575-2.468-2.4675-3.833-6.44-3.833-3.9725 0-6.16 1.208-6.16 3.378 0 1.837 1.225 2.66 4.06 2.835l3.8325.21c1.855.087 2.66.455 2.66 1.225 0 1.225-1.4875 1.872-4.3925 1.872-2.59 0-4.13-.682-4.585-2.012Zm12.791-3.168v1.575h9.9575v-1.575h-9.9575Zm11.1949-4.077L104.701 436h2.835l3.797-9.748 3.78 9.748h2.853l4.445-10.465h-1.68l-4.165 9.94-3.833-9.94h-2.747l-3.798 9.765-4.077-9.765h-1.873Zm30.314 10.728c4.498 0 7.21-2.066 7.21-5.496 0-3.43-2.712-5.495-7.21-5.495-4.48 0-7.21 2.065-7.21 5.495s2.73 5.496 7.21 5.496Zm-5.495-5.496c0-2.572 1.978-4.025 5.495-4.025 3.518 0 5.495 1.453 5.495 4.025 0 2.59-1.977 4.025-5.495 4.025-3.517 0-5.495-1.435-5.495-4.025ZM140.416 436h1.68v-4.918c0-2.852 1.243-4.217 3.833-4.217 2.065 0 3.045.787 3.045 2.45v.35h1.75v-.613c0-2.432-1.558-3.78-4.358-3.78-1.837 0-3.22.578-3.937 1.628h-.333v-1.365h-1.68V436Zm12.595-14.84V436h1.68v-14.84h-1.68Zm11.095 15.103c2.45 0 4.375-.631 5.338-1.751h.332V436h1.68v-14.84h-1.68v5.88h-.332c-.963-1.138-2.888-1.768-5.338-1.768-4.217 0-6.755 2.065-6.755 5.495s2.538 5.496 6.755 5.496Zm-5.04-5.496c0-2.572 1.943-4.025 5.39-4.025 3.448 0 5.39 1.453 5.39 4.025 0 2.59-1.942 4.025-5.39 4.025-3.447 0-5.39-1.435-5.39-4.025ZM9.065 447.272c-2.45 0-4.375.63-5.3375 1.768H3.395v-1.505h-1.68V461.5h1.68v-4.988h.3325c.9625 1.12 2.8875 1.751 5.3375 1.751 4.2175 0 6.755-2.066 6.755-5.496 0-3.43-2.5375-5.495-6.755-5.495Zm-5.74 5.495c0-2.572 1.9425-4.025 5.39-4.025s5.39 1.453 5.39 4.025c0 2.59-1.9425 4.025-5.39 4.025s-5.39-1.435-5.39-4.025ZM18.4801 458h1.68v-4.918c0-2.852 1.2425-4.217 3.8325-4.217 2.065 0 3.045.787 3.045 2.45v.35h1.75v-.613c0-2.432-1.5575-3.78-4.3575-3.78-1.8375 0-3.22.578-3.9375 1.628h-.3325v-1.365h-1.68V458Zm19.0353.263c4.4975 0 7.21-2.066 7.21-5.496 0-3.43-2.7125-5.495-7.21-5.495-4.48 0-7.21 2.065-7.21 5.495s2.73 5.496 7.21 5.496Zm-5.495-5.496c0-2.572 1.9775-4.025 5.495-4.025s5.495 1.453 5.495 4.025c0 2.59-1.9775 4.025-5.495 4.025s-5.495-1.435-5.495-4.025Zm21.3437 5.496c2.45 0 4.375-.631 5.3375-1.751h.3325V458h1.68v-14.84h-1.68v5.88h-.3325c-.9625-1.138-2.8875-1.768-5.3375-1.768-4.2175 0-6.755 2.065-6.755 5.495s2.5375 5.496 6.755 5.496Zm-5.04-5.496c0-2.572 1.9425-4.025 5.39-4.025s5.39 1.453 5.39 4.025c0 2.59-1.9425 4.025-5.39 4.025s-5.39-1.435-5.39-4.025ZM76.1492 458v-10.465h-1.68v5.285c0 2.625-1.4 3.85-4.41 3.85-3.01 0-4.41-1.225-4.41-3.85v-5.285h-1.68v5.722c0 3.15 2.1 5.006 5.6525 5.006 2.1 0 3.6925-.578 4.515-1.628h.3325V458h1.68Zm9.7096.263c3.885 0 6.265-1.436 6.6325-3.973h-1.61c-.49 1.61-2.275 2.502-5.0225 2.502-3.4125 0-5.3375-1.417-5.3375-3.972 0-2.608 1.9775-4.078 5.46-4.078 2.9225 0 4.795 1.015 5.25 2.818h1.5925c-.28-2.748-2.7475-4.288-6.825-4.288-4.4975 0-7.1925 2.083-7.1925 5.548 0 3.395 2.6425 5.443 7.0525 5.443Zm15.4342 0c2.783 0 4.638-1.576 4.953-4.218h-1.488c-.402 1.767-1.61 2.747-3.465 2.747-1.82 0-2.835-.98-2.835-2.747v-5.04h6.965v-1.47h-6.965v-2.66h-1.68v2.66h-2.9925v1.47h2.9925v5.04c0 2.66 1.68 4.218 4.515 4.218Zm8.336-3.483h-1.663c.175 2.24 2.415 3.483 6.248 3.483 3.92 0 6.107-1.208 6.107-3.378 0-1.803-1.225-2.643-4.06-2.8l-3.832-.21c-1.855-.105-2.66-.49-2.66-1.243 0-1.242 1.505-1.89 4.445-1.89 2.747 0 4.375.805 4.812 2.363h1.628c-.158-2.468-2.468-3.833-6.44-3.833-3.973 0-6.16 1.208-6.16 3.378 0 1.837 1.225 2.66 4.06 2.835l3.832.21c1.855.087 2.66.455 2.66 1.225 0 1.225-1.487 1.872-4.392 1.872-2.59 0-4.13-.682-4.585-2.012Zm24.157 3.465c2.45 0 4.393-.648 5.18-1.715h.333V458h1.645v-6.458c0-2.8-2.048-4.27-5.968-4.27-3.937 0-6.212 1.4-6.58 4.078h1.645c.49-1.75 2.1-2.608 4.935-2.608 2.87 0 4.288.998 4.323 3.045l-6.44.455c-2.468.175-3.798 1.173-3.798 2.905 0 2.048 1.523 3.098 4.725 3.098Zm-2.922-3.063c0-.945.717-1.452 2.292-1.557l6.143-.42v.455c0 1.89-2.083 3.132-5.215 3.132-2.03 0-3.22-.595-3.22-1.61Zm13.329-7.647V458h1.68v-5.285c0-2.625 1.4-3.85 4.41-3.85 3.01 0 4.41 1.225 4.41 3.85V458h1.68v-5.723c0-3.15-2.1-5.005-5.652-5.005-2.1 0-3.693.578-4.515 1.628h-.333v-1.365h-1.68Zm21.417 10.728c2.45 0 4.375-.631 5.338-1.751h.332V458h1.68v-14.84h-1.68v5.88h-.332c-.963-1.138-2.888-1.768-5.338-1.768-4.217 0-6.755 2.065-6.755 5.495s2.538 5.496 6.755 5.496Zm-5.04-5.496c0-2.572 1.943-4.025 5.39-4.025 3.448 0 5.39 1.453 5.39 4.025 0 2.59-1.942 4.025-5.39 4.025-3.447 0-5.39-1.435-5.39-4.025ZM8.155 480.263c4.4975 0 7.21-2.066 7.21-5.496 0-3.43-2.7125-5.495-7.21-5.495-4.48 0-7.21 2.065-7.21 5.495s2.73 5.496 7.21 5.496Zm-5.495-5.496c0-2.572 1.9775-4.025 5.495-4.025s5.495 1.453 5.495 4.025c0 2.59-1.9775 4.025-5.495 4.025s-5.495-1.435-5.495-4.025Zm22.7087-5.495c-2.45 0-4.375.63-5.3375 1.768h-.3325v-1.505h-1.68V483.5h1.68v-4.988h.3325c.9625 1.12 2.8875 1.751 5.3375 1.751 4.2175 0 6.755-2.066 6.755-5.496 0-3.43-2.5375-5.495-6.755-5.495Zm-5.74 5.495c0-2.572 1.9425-4.025 5.39-4.025s5.39 1.453 5.39 4.025c0 2.59-1.9425 4.025-5.39 4.025s-5.39-1.435-5.39-4.025Zm14.3851-.087c0 3.587 2.5025 5.583 7.035 5.583 3.675 0 6.1425-1.243 7.0875-3.483h-1.8375c-1.0325 1.33-2.5725 2.047-5.25 2.047-3.22 0-5.0225-1.207-5.285-3.517h11.935c.0175-.158.035-.438.035-.718 0-3.412-2.415-5.32-6.755-5.32s-6.965 2.03-6.965 5.408Zm1.785-.805c.3675-2.03 2.1875-3.168 5.18-3.168 3.0625 0 4.795 1.085 5.11 3.168h-10.29Zm14.7248-4.34V480h1.68v-5.285c0-2.625 1.4-3.85 4.41-3.85 3.01 0 4.41 1.225 4.41 3.85V480h1.68v-5.723c0-3.15-2.1-5.005-5.6525-5.005-2.1 0-3.6925.578-4.515 1.628h-.3325v-1.365h-1.68Zm22.4302 7.245h-1.6625c.175 2.24 2.415 3.483 6.2475 3.483 3.92 0 6.1075-1.208 6.1075-3.378 0-1.803-1.225-2.643-4.06-2.8l-3.8325-.21c-1.855-.105-2.66-.49-2.66-1.243 0-1.242 1.505-1.89 4.445-1.89 2.7475 0 4.375.805 4.8125 2.363h1.6275c-.1575-2.468-2.4675-3.833-6.44-3.833-3.9725 0-6.16 1.208-6.16 3.378 0 1.837 1.225 2.66 4.06 2.835l3.8325.21c1.855.087 2.66.455 2.66 1.225 0 1.225-1.4875 1.872-4.3925 1.872-2.59 0-4.13-.682-4.585-2.012Zm20.001 3.483c4.4975 0 7.2102-2.066 7.2102-5.496 0-3.43-2.7127-5.495-7.2102-5.495-4.48 0-7.21 2.065-7.21 5.495s2.73 5.496 7.21 5.496Zm-5.495-5.496c0-2.572 1.9775-4.025 5.495-4.025s5.495 1.453 5.495 4.025c0 2.59-1.9775 4.025-5.495 4.025s-5.495-1.435-5.495-4.025ZM114.824 480v-10.465h-1.68v5.285c0 2.625-1.4 3.85-4.41 3.85-3.01 0-4.41-1.225-4.41-3.85v-5.285h-1.68v5.722c0 3.15 2.1 5.006 5.652 5.006 2.1 0 3.693-.578 4.515-1.628h.333V480h1.68Zm3.427 0h1.68v-4.918c0-2.852 1.242-4.217 3.832-4.217 2.065 0 3.045.787 3.045 2.45v.35h1.75v-.613c0-2.432-1.557-3.78-4.357-3.78-1.838 0-3.22.578-3.938 1.628h-.332v-1.365h-1.68V480Zm18.877.263c3.885 0 6.265-1.436 6.633-3.973h-1.61c-.49 1.61-2.275 2.502-5.023 2.502-3.412 0-5.337-1.417-5.337-3.972 0-2.608 1.977-4.078 5.46-4.078 2.922 0 4.795 1.015 5.25 2.818h1.592c-.28-2.748-2.747-4.288-6.825-4.288-4.497 0-7.192 2.083-7.192 5.548 0 3.395 2.642 5.443 7.052 5.443Zm8.5-5.583c0 3.587 2.502 5.583 7.035 5.583 3.675 0 6.142-1.243 7.087-3.483h-1.837c-1.033 1.33-2.573 2.047-5.25 2.047-3.22 0-5.023-1.207-5.285-3.517h11.935c.017-.158.035-.438.035-.718 0-3.412-2.415-5.32-6.755-5.32s-6.965 2.03-6.965 5.408Zm1.785-.805c.367-2.03 2.187-3.168 5.18-3.168 3.062 0 4.795 1.085 5.11 3.168h-10.29ZM9.065 491.272c-2.45 0-4.375.63-5.3375 1.768H3.395v-1.505h-1.68V505.5h1.68v-4.988h.3325c.9625 1.12 2.8875 1.751 5.3375 1.751 4.2175 0 6.755-2.066 6.755-5.496 0-3.43-2.5375-5.495-6.755-5.495Zm-5.74 5.495c0-2.572 1.9425-4.025 5.39-4.025s5.39 1.453 5.39 4.025c0 2.59-1.9425 4.025-5.39 4.025s-5.39-1.435-5.39-4.025ZM18.4801 502h1.68v-4.918c0-2.852 1.2425-4.217 3.8325-4.217 2.065 0 3.045.787 3.045 2.45v.35h1.75v-.613c0-2.432-1.5575-3.78-4.3575-3.78-1.8375 0-3.22.578-3.9375 1.628h-.3325v-1.365h-1.68V502Zm19.0353.263c4.4975 0 7.21-2.066 7.21-5.496 0-3.43-2.7125-5.495-7.21-5.495-4.48 0-7.21 2.065-7.21 5.495s2.73 5.496 7.21 5.496Zm-5.495-5.496c0-2.572 1.9775-4.025 5.495-4.025s5.495 1.453 5.495 4.025c0 2.59-1.9775 4.025-5.495 4.025s-5.495-1.435-5.495-4.025Zm16.8637-5.232v10.553c0 1.452-.7875 2.205-2.31 2.205-1.1025 0-1.82-.42-2.205-1.243h-1.575c.2625 1.75 1.61 2.713 3.78 2.713 2.5725 0 3.99-1.313 3.99-3.675v-10.553h-1.68Zm-.6125-2.888c0 .735.5775 1.173 1.4525 1.173.875 0 1.4525-.438 1.4525-1.173 0-.735-.5775-1.19-1.4525-1.19-.875 0-1.4525.455-1.4525 1.19Zm4.9512 8.033c0 3.587 2.5025 5.583 7.035 5.583 3.675 0 6.1425-1.243 7.0875-3.483h-1.8375c-1.0325 1.33-2.5725 2.047-5.25 2.047-3.22 0-5.0225-1.207-5.285-3.517h11.935c.0175-.158.035-.438.035-.718 0-3.412-2.415-5.32-6.755-5.32s-6.965 2.03-6.965 5.408Zm1.785-.805c.3675-2.03 2.1875-3.168 5.18-3.168 3.0625 0 4.795 1.085 5.11 3.168h-10.29Zm21.0073 6.388c3.885 0 6.265-1.436 6.6325-3.973h-1.61c-.49 1.61-2.275 2.502-5.0225 2.502-3.4125 0-5.3375-1.417-5.3375-3.972 0-2.608 1.9775-4.078 5.46-4.078 2.9225 0 4.795 1.015 5.25 2.818h1.5925c-.28-2.748-2.7475-4.288-6.825-4.288-4.4975 0-7.1925 2.083-7.1925 5.548 0 3.395 2.6425 5.443 7.0525 5.443Zm15.4342 0c2.7825 0 4.6375-1.576 4.9525-4.218h-1.4875c-.4025 1.767-1.61 2.747-3.465 2.747-1.82 0-2.835-.98-2.835-2.747v-5.04h6.965v-1.47h-6.965v-2.66h-1.68v2.66h-2.9925v1.47h2.9925v5.04c0 2.66 1.68 4.218 4.515 4.218Zm8.3356-3.483h-1.6625c.175 2.24 2.4146 3.483 6.2476 3.483 3.92 0 6.107-1.208 6.107-3.378 0-1.803-1.225-2.643-4.06-2.8l-3.832-.21c-1.855-.105-2.6601-.49-2.6601-1.243 0-1.242 1.5051-1.89 4.4451-1.89 2.747 0 4.375.805 4.812 2.363h1.628c-.158-2.468-2.468-3.833-6.44-3.833-3.973 0-6.1601 1.208-6.1601 3.378 0 1.837 1.225 2.66 4.0601 2.835l3.832.21c1.855.087 2.66.455 2.66 1.225 0 1.225-1.487 1.872-4.392 1.872-2.59 0-4.13-.682-4.5851-2.012Z"/>
</svg>