<svg width="1441" height="358" viewBox="0 0 1441 358" fill="none" xmlns="http://www.w3.org/2000/svg">
<path d="M991.725 1.43903L1739.63 356.599H-260.365L482.205 1.43903H991.725Z" stroke="black" stroke-opacity="0.05" stroke-miterlimit="10"/>
<path d="M-152.105 304.829L-65.0754 263.199H68.9346L-3.54543 304.829H-152.105Z" stroke="black" stroke-opacity="0.05" stroke-miterlimit="10"/>
<path d="M-65.0754 263.199L6.42456 228.999H128.475L68.9346 263.199H-65.0754Z" stroke="black" stroke-opacity="0.05" stroke-miterlimit="10"/>
<path d="M6.42455 228.999L66.2146 200.409H178.255L128.475 228.999H6.42455Z" stroke="black" stroke-opacity="0.05" stroke-miterlimit="10"/>
<path d="M66.2146 200.409L116.945 176.139H220.495L178.255 200.409H66.2146Z" stroke="black" stroke-opacity="0.05" stroke-miterlimit="10"/>
<path d="M116.945 176.139L160.525 155.299H256.795L220.495 176.139H116.945Z" stroke="black" stroke-opacity="0.05" stroke-miterlimit="10"/>
<path d="M160.525 155.299L198.375 137.189H288.315L256.795 155.299H160.525Z" stroke="black" stroke-opacity="0.05" stroke-miterlimit="10"/>
<path d="M198.375 137.189L231.555 121.319H315.945L288.315 137.189H198.375Z" stroke="black" stroke-opacity="0.05" stroke-miterlimit="10"/>
<path d="M231.555 121.319L260.885 107.299H340.365L315.945 121.319H231.555Z" stroke="black" stroke-opacity="0.05" stroke-miterlimit="10"/>
<path d="M260.885 107.299L286.985 94.809H362.095L340.365 107.299H260.885Z" stroke="black" stroke-opacity="0.05" stroke-miterlimit="10"/>
<path d="M286.985 94.809L310.365 83.629H381.575L362.095 94.809H286.985Z" stroke="black" stroke-opacity="0.05" stroke-miterlimit="10"/>
<path d="M310.365 83.629L331.435 73.549H399.115L381.575 83.629H310.365Z" stroke="black" stroke-opacity="0.05" stroke-miterlimit="10"/>
<path d="M331.435 73.549L350.515 64.419H415.005L399.115 73.549H331.435Z" stroke="black" stroke-opacity="0.05" stroke-miterlimit="10"/>
<path d="M350.515 64.419L367.885 56.119H429.465L415.005 64.419H350.515Z" stroke="black" stroke-opacity="0.05" stroke-miterlimit="10"/>
<path d="M367.885 56.119L383.745 48.529H442.675L429.465 56.119H367.885Z" stroke="black" stroke-opacity="0.05" stroke-miterlimit="10"/>
<path d="M383.745 48.529L398.305 41.569H454.795L442.675 48.529H383.745Z" stroke="black" stroke-opacity="0.05" stroke-miterlimit="10"/>
<path d="M398.305 41.569L411.705 35.159H465.955L454.795 41.569H398.305Z" stroke="black" stroke-opacity="0.05" stroke-miterlimit="10"/>
<path d="M411.705 35.159L424.075 29.239H476.265L465.955 35.159H411.705Z" stroke="black" stroke-opacity="0.05" stroke-miterlimit="10"/>
<path d="M424.075 29.239L435.545 23.749H485.815L476.265 29.239H424.075Z" stroke="black" stroke-opacity="0.05" stroke-miterlimit="10"/>
<path d="M435.545 23.749L446.205 18.659H494.685L485.815 23.749H435.545Z" stroke="black" stroke-opacity="0.05" stroke-miterlimit="10"/>
<path d="M446.205 18.659L456.125 13.909H502.945L494.685 18.659H446.205Z" stroke="black" stroke-opacity="0.05" stroke-miterlimit="10"/>
<path d="M456.125 13.909L465.395 9.47903H510.665L502.945 13.909H456.125Z" stroke="black" stroke-opacity="0.05" stroke-miterlimit="10"/>
<path d="M465.395 9.47903L474.065 5.32903H517.885L510.665 9.47903H465.395Z" stroke="black" stroke-opacity="0.05" stroke-miterlimit="10"/>
<path d="M474.065 5.32903L482.205 1.43903H524.665L517.885 5.32903H474.065Z" stroke="black" stroke-opacity="0.05" stroke-miterlimit="10"/>
<path d="M-93.6954 356.599L-3.54544 304.829H145.015L72.9746 356.599H-93.6954Z" stroke="black" stroke-opacity="0.05" stroke-miterlimit="10"/>
<path d="M-3.54546 304.829L68.9346 263.199H202.935L145.015 304.829H-3.54546Z" stroke="black" stroke-opacity="0.05" stroke-miterlimit="10"/>
<path d="M68.9346 263.199L128.475 228.999H250.515L202.935 263.199H68.9346Z" stroke="black" stroke-opacity="0.05" stroke-miterlimit="10"/>
<path d="M128.475 228.999L178.255 200.409H290.295L250.515 228.999H128.475Z" stroke="black" stroke-opacity="0.05" stroke-miterlimit="10"/>
<path d="M178.255 200.409L220.495 176.139H324.055L290.295 200.409H178.255Z" stroke="black" stroke-opacity="0.05" stroke-miterlimit="10"/>
<path d="M220.495 176.139L256.795 155.299H353.055L324.055 176.139H220.495Z" stroke="black" stroke-opacity="0.05" stroke-miterlimit="10"/>
<path d="M256.795 155.299L288.315 137.189H378.245L353.055 155.299H256.795Z" stroke="black" stroke-opacity="0.05" stroke-miterlimit="10"/>
<path d="M288.315 137.189L315.945 121.319H400.325L378.245 137.189H288.315Z" stroke="black" stroke-opacity="0.05" stroke-miterlimit="10"/>
<path d="M315.945 121.319L340.365 107.299H419.845L400.325 121.319H315.945Z" stroke="black" stroke-opacity="0.05" stroke-miterlimit="10"/>
<path d="M340.365 107.299L362.095 94.809H437.215L419.845 107.299H340.365Z" stroke="black" stroke-opacity="0.05" stroke-miterlimit="10"/>
<path d="M362.095 94.809L381.575 83.629H452.775L437.215 94.809H362.095Z" stroke="black" stroke-opacity="0.05" stroke-miterlimit="10"/>
<path d="M381.575 83.629L399.115 73.549H466.795L452.775 83.629H381.575Z" stroke="black" stroke-opacity="0.05" stroke-miterlimit="10"/>
<path d="M399.115 73.549L415.005 64.419H479.495L466.795 73.549H399.115Z" stroke="black" stroke-opacity="0.05" stroke-miterlimit="10"/>
<path d="M415.005 64.419L429.465 56.119H491.045L479.495 64.419H415.005Z" stroke="black" stroke-opacity="0.05" stroke-miterlimit="10"/>
<path d="M429.465 56.119L442.675 48.529H501.605L491.045 56.119H429.465Z" stroke="black" stroke-opacity="0.05" stroke-miterlimit="10"/>
<path d="M442.675 48.529L454.795 41.569H511.285L501.605 48.529H442.675Z" stroke="black" stroke-opacity="0.05" stroke-miterlimit="10"/>
<path d="M454.795 41.569L465.955 35.159H520.205L511.285 41.569H454.795Z" stroke="black" stroke-opacity="0.05" stroke-miterlimit="10"/>
<path d="M465.955 35.159L476.265 29.239H528.445L520.205 35.159H465.955Z" stroke="black" stroke-opacity="0.05" stroke-miterlimit="10"/>
<path d="M476.265 29.239L485.815 23.749H536.075L528.445 29.239H476.265Z" stroke="black" stroke-opacity="0.05" stroke-miterlimit="10"/>
<path d="M485.815 23.749L494.685 18.659H543.165L536.075 23.749H485.815Z" stroke="black" stroke-opacity="0.05" stroke-miterlimit="10"/>
<path d="M494.685 18.659L502.945 13.909H549.765L543.165 18.659H494.685Z" stroke="black" stroke-opacity="0.05" stroke-miterlimit="10"/>
<path d="M502.945 13.909L510.665 9.47903H555.935L549.765 13.909H502.945Z" stroke="black" stroke-opacity="0.05" stroke-miterlimit="10"/>
<path d="M510.665 9.47903L517.885 5.32903H561.705L555.935 9.47903H510.665Z" stroke="black" stroke-opacity="0.05" stroke-miterlimit="10"/>
<path d="M517.885 5.32903L524.665 1.43903H567.125L561.705 5.32903H517.885Z" stroke="black" stroke-opacity="0.05" stroke-miterlimit="10"/>
<path d="M72.9746 356.599L145.015 304.829H293.575L239.635 356.599H72.9746Z" stroke="black" stroke-opacity="0.05" stroke-miterlimit="10"/>
<path d="M145.015 304.829L202.935 263.199H336.935L293.575 304.829H145.015Z" stroke="black" stroke-opacity="0.05" stroke-miterlimit="10"/>
<path d="M202.935 263.199L250.515 228.999H372.555L336.935 263.199H202.935Z" stroke="black" stroke-opacity="0.05" stroke-miterlimit="10"/>
<path d="M250.515 228.999L290.295 200.409H402.335L372.555 228.999H250.515Z" stroke="black" stroke-opacity="0.05" stroke-miterlimit="10"/>
<path d="M290.295 200.409L324.055 176.139H427.615L402.335 200.409H290.295Z" stroke="black" stroke-opacity="0.05" stroke-miterlimit="10"/>
<path d="M324.055 176.139L353.055 155.299H449.325L427.615 176.139H324.055Z" stroke="black" stroke-opacity="0.05" stroke-miterlimit="10"/>
<path d="M353.055 155.299L378.245 137.189H468.185L449.325 155.299H353.055Z" stroke="black" stroke-opacity="0.05" stroke-miterlimit="10"/>
<path d="M378.245 137.189L400.325 121.319H484.715L468.185 137.189H378.245Z" stroke="black" stroke-opacity="0.05" stroke-miterlimit="10"/>
<path d="M400.325 121.319L419.845 107.299H499.325L484.715 121.319H400.325Z" stroke="black" stroke-opacity="0.05" stroke-miterlimit="10"/>
<path d="M419.845 107.299L437.215 94.809H512.325L499.325 107.299H419.845Z" stroke="black" stroke-opacity="0.05" stroke-miterlimit="10"/>
<path d="M437.215 94.809L452.775 83.629H523.975L512.325 94.809H437.215Z" stroke="black" stroke-opacity="0.05" stroke-miterlimit="10"/>
<path d="M452.775 83.629L466.795 73.549H534.475L523.975 83.629H452.775Z" stroke="black" stroke-opacity="0.05" stroke-miterlimit="10"/>
<path d="M466.795 73.549L479.495 64.419H543.975L534.475 73.549H466.795Z" stroke="black" stroke-opacity="0.05" stroke-miterlimit="10"/>
<path d="M479.495 64.419L491.045 56.119H552.625L543.975 64.419H479.495Z" stroke="black" stroke-opacity="0.05" stroke-miterlimit="10"/>
<path d="M491.045 56.119L501.605 48.529H560.535L552.625 56.119H491.045Z" stroke="black" stroke-opacity="0.05" stroke-miterlimit="10"/>
<path d="M501.605 48.529L511.285 41.569H567.785L560.535 48.529H501.605Z" stroke="black" stroke-opacity="0.05" stroke-miterlimit="10"/>
<path d="M511.285 41.569L520.205 35.159H574.455L567.785 41.569H511.285Z" stroke="black" stroke-opacity="0.05" stroke-miterlimit="10"/>
<path d="M520.205 35.159L528.445 29.239H580.625L574.455 35.159H520.205Z" stroke="black" stroke-opacity="0.05" stroke-miterlimit="10"/>
<path d="M528.445 29.239L536.075 23.749H586.335L580.625 29.239H528.445Z" stroke="black" stroke-opacity="0.05" stroke-miterlimit="10"/>
<path d="M536.075 23.749L543.165 18.659H591.645L586.335 23.749H536.075Z" stroke="black" stroke-opacity="0.05" stroke-miterlimit="10"/>
<path d="M543.165 18.659L549.765 13.909H596.595L591.645 18.659H543.165Z" stroke="black" stroke-opacity="0.05" stroke-miterlimit="10"/>
<path d="M549.765 13.909L555.935 9.47903H601.205L596.595 13.909H549.765Z" stroke="black" stroke-opacity="0.05" stroke-miterlimit="10"/>
<path d="M555.935 9.47903L561.705 5.32903H605.525L601.205 9.47903H555.935Z" stroke="black" stroke-opacity="0.05" stroke-miterlimit="10"/>
<path d="M561.705 5.32903L567.125 1.43903H609.585L605.525 5.32903H561.705Z" stroke="black" stroke-opacity="0.05" stroke-miterlimit="10"/>
<path d="M239.635 356.599L293.575 304.829H442.135L406.305 356.599H239.635Z" stroke="black" stroke-opacity="0.05" stroke-miterlimit="10"/>
<path d="M293.575 304.829L336.935 263.199H470.935L442.135 304.829H293.575Z" stroke="black" stroke-opacity="0.05" stroke-miterlimit="10"/>
<path d="M336.935 263.199L372.555 228.999H494.595L470.935 263.199H336.935Z" stroke="black" stroke-opacity="0.05" stroke-miterlimit="10"/>
<path d="M372.555 228.999L402.335 200.409H514.375L494.595 228.999H372.555Z" stroke="black" stroke-opacity="0.05" stroke-miterlimit="10"/>
<path d="M402.335 200.409L427.615 176.139H531.165L514.375 200.409H402.335Z" stroke="black" stroke-opacity="0.05" stroke-miterlimit="10"/>
<path d="M427.615 176.139L449.325 155.299H545.595L531.165 176.139H427.615Z" stroke="black" stroke-opacity="0.05" stroke-miterlimit="10"/>
<path d="M449.325 155.299L468.185 137.189H558.115L545.595 155.299H449.325Z" stroke="black" stroke-opacity="0.05" stroke-miterlimit="10"/>
<path d="M468.185 137.189L484.715 121.319H569.095L558.115 137.189H468.185Z" stroke="black" stroke-opacity="0.05" stroke-miterlimit="10"/>
<path d="M484.715 121.319L499.325 107.299H578.805L569.095 121.319H484.715Z" stroke="black" stroke-opacity="0.05" stroke-miterlimit="10"/>
<path d="M499.325 107.299L512.325 94.809H587.435L578.805 107.299H499.325Z" stroke="black" stroke-opacity="0.05" stroke-miterlimit="10"/>
<path d="M512.325 94.809L523.975 83.629H595.175L587.435 94.809H512.325Z" stroke="black" stroke-opacity="0.05" stroke-miterlimit="10"/>
<path d="M523.975 83.629L534.475 73.549H602.145L595.175 83.629H523.975Z" stroke="black" stroke-opacity="0.05" stroke-miterlimit="10"/>
<path d="M534.475 73.549L543.975 64.419H608.465L602.145 73.549H534.475Z" stroke="black" stroke-opacity="0.05" stroke-miterlimit="10"/>
<path d="M543.975 64.419L552.625 56.119H614.205L608.465 64.419H543.975Z" stroke="black" stroke-opacity="0.05" stroke-miterlimit="10"/>
<path d="M552.625 56.119L560.535 48.529H619.465L614.205 56.119H552.625Z" stroke="black" stroke-opacity="0.05" stroke-miterlimit="10"/>
<path d="M560.535 48.529L567.785 41.569H624.275L619.465 48.529H560.535Z" stroke="black" stroke-opacity="0.05" stroke-miterlimit="10"/>
<path d="M567.785 41.569L574.455 35.159H628.715L624.275 41.569H567.785Z" stroke="black" stroke-opacity="0.05" stroke-miterlimit="10"/>
<path d="M574.455 35.159L580.625 29.239H632.805L628.715 35.159H574.455Z" stroke="black" stroke-opacity="0.05" stroke-miterlimit="10"/>
<path d="M580.625 29.239L586.335 23.749H636.605L632.805 29.239H580.625Z" stroke="black" stroke-opacity="0.05" stroke-miterlimit="10"/>
<path d="M586.335 23.749L591.645 18.659H640.125L636.605 23.749H586.335Z" stroke="black" stroke-opacity="0.05" stroke-miterlimit="10"/>
<path d="M591.645 18.659L596.595 13.909H643.415L640.125 18.659H591.645Z" stroke="black" stroke-opacity="0.05" stroke-miterlimit="10"/>
<path d="M596.595 13.909L601.205 9.47903H646.475L643.415 13.909H596.595Z" stroke="black" stroke-opacity="0.05" stroke-miterlimit="10"/>
<path d="M601.205 9.47903L605.525 5.32903H649.355L646.475 9.47903H601.205Z" stroke="black" stroke-opacity="0.05" stroke-miterlimit="10"/>
<path d="M605.525 5.32903L609.585 1.43903H652.045L649.355 5.32903H605.525Z" stroke="black" stroke-opacity="0.05" stroke-miterlimit="10"/>
<path d="M406.305 356.599L442.135 304.829H590.685L572.975 356.599H406.305Z" stroke="black" stroke-opacity="0.05" stroke-miterlimit="10"/>
<path d="M442.135 304.829L470.935 263.199H604.935L590.685 304.829H442.135Z" stroke="black" stroke-opacity="0.05" stroke-miterlimit="10"/>
<path d="M470.935 263.199L494.595 228.999H616.635L604.935 263.199H470.935Z" stroke="black" stroke-opacity="0.05" stroke-miterlimit="10"/>
<path d="M494.595 228.999L514.375 200.409H626.425L616.635 228.999H494.595Z" stroke="black" stroke-opacity="0.05" stroke-miterlimit="10"/>
<path d="M514.375 200.409L531.165 176.139H634.725L626.425 200.409H514.375Z" stroke="black" stroke-opacity="0.05" stroke-miterlimit="10"/>
<path d="M531.165 176.139L545.595 155.299H641.855L634.725 176.139H531.165Z" stroke="black" stroke-opacity="0.05" stroke-miterlimit="10"/>
<path d="M545.595 155.299L558.115 137.189H648.055L641.855 155.299H545.595Z" stroke="black" stroke-opacity="0.05" stroke-miterlimit="10"/>
<path d="M558.115 137.189L569.095 121.319H653.485L648.055 137.189H558.115Z" stroke="black" stroke-opacity="0.05" stroke-miterlimit="10"/>
<path d="M569.095 121.319L578.805 107.299H658.285L653.485 121.319H569.095Z" stroke="black" stroke-opacity="0.05" stroke-miterlimit="10"/>
<path d="M578.805 107.299L587.435 94.809H662.555L658.285 107.299H578.805Z" stroke="black" stroke-opacity="0.05" stroke-miterlimit="10"/>
<path d="M587.435 94.809L595.175 83.629H666.375L662.555 94.809H587.435Z" stroke="black" stroke-opacity="0.05" stroke-miterlimit="10"/>
<path d="M595.175 83.629L602.145 73.549H669.825L666.375 83.629H595.175Z" stroke="black" stroke-opacity="0.05" stroke-miterlimit="10"/>
<path d="M602.145 73.549L608.465 64.419H672.955L669.825 73.549H602.145Z" stroke="black" stroke-opacity="0.05" stroke-miterlimit="10"/>
<path d="M608.465 64.419L614.205 56.119H675.795L672.955 64.419H608.465Z" stroke="black" stroke-opacity="0.05" stroke-miterlimit="10"/>
<path d="M614.205 56.119L619.465 48.529H678.385L675.795 56.119H614.205Z" stroke="black" stroke-opacity="0.05" stroke-miterlimit="10"/>
<path d="M619.465 48.529L624.275 41.569H680.775L678.385 48.529H619.465Z" stroke="black" stroke-opacity="0.05" stroke-miterlimit="10"/>
<path d="M624.275 41.569L628.715 35.159H682.965L680.775 41.569H624.275Z" stroke="black" stroke-opacity="0.05" stroke-miterlimit="10"/>
<path d="M628.715 35.159L632.805 29.239H684.985L682.965 35.159H628.715Z" stroke="black" stroke-opacity="0.05" stroke-miterlimit="10"/>
<path d="M632.805 29.239L636.605 23.749H686.865L684.985 29.239H632.805Z" stroke="black" stroke-opacity="0.05" stroke-miterlimit="10"/>
<path d="M636.605 23.749L640.125 18.659H688.615L686.865 23.749H636.605Z" stroke="black" stroke-opacity="0.05" stroke-miterlimit="10"/>
<path d="M640.125 18.659L643.415 13.909H690.235L688.615 18.659H640.125Z" stroke="black" stroke-opacity="0.05" stroke-miterlimit="10"/>
<path d="M643.415 13.909L646.475 9.47903H691.755L690.235 13.909H643.415Z" stroke="black" stroke-opacity="0.05" stroke-miterlimit="10"/>
<path d="M646.475 9.47903L649.355 5.32903H693.175L691.755 9.47903H646.475Z" stroke="black" stroke-opacity="0.05" stroke-miterlimit="10"/>
<path d="M649.355 5.32903L652.045 1.43903H694.505L693.175 5.32903H649.355Z" stroke="black" stroke-opacity="0.05" stroke-miterlimit="10"/>
<path d="M572.975 356.599L590.685 304.829H739.245L739.635 356.599H572.975Z" stroke="black" stroke-opacity="0.05" stroke-miterlimit="10"/>
<path d="M590.685 304.829L604.935 263.199H738.935L739.245 304.829H590.685Z" stroke="black" stroke-opacity="0.05" stroke-miterlimit="10"/>
<path d="M604.935 263.199L616.635 228.999H738.675L738.935 263.199H604.935Z" stroke="black" stroke-opacity="0.05" stroke-miterlimit="10"/>
<path d="M616.635 228.999L626.425 200.409H738.465L738.675 228.999H616.635Z" stroke="black" stroke-opacity="0.05" stroke-miterlimit="10"/>
<path d="M626.425 200.409L634.725 176.139H738.275L738.465 200.409H626.425Z" stroke="black" stroke-opacity="0.05" stroke-miterlimit="10"/>
<path d="M634.725 176.139L641.855 155.299H738.125L738.275 176.139H634.725Z" stroke="black" stroke-opacity="0.05" stroke-miterlimit="10"/>
<path d="M641.855 155.299L648.055 137.189H737.985L738.125 155.299H641.855Z" stroke="black" stroke-opacity="0.05" stroke-miterlimit="10"/>
<path d="M648.055 137.189L653.485 121.319H737.865L737.985 137.189H648.055Z" stroke="black" stroke-opacity="0.05" stroke-miterlimit="10"/>
<path d="M653.485 121.319L658.285 107.299H737.765L737.865 121.319H653.485Z" stroke="black" stroke-opacity="0.05" stroke-miterlimit="10"/>
<path d="M658.285 107.299L662.555 94.809H737.665L737.765 107.299H658.285Z" stroke="black" stroke-opacity="0.05" stroke-miterlimit="10"/>
<path d="M662.555 94.809L666.375 83.629H737.585L737.665 94.809H662.555Z" stroke="black" stroke-opacity="0.05" stroke-miterlimit="10"/>
<path d="M666.375 83.629L669.825 73.549H737.505L737.585 83.629H666.375Z" stroke="black" stroke-opacity="0.05" stroke-miterlimit="10"/>
<path d="M669.825 73.549L672.955 64.419H737.435L737.505 73.549H669.825Z" stroke="black" stroke-opacity="0.05" stroke-miterlimit="10"/>
<path d="M672.955 64.419L675.795 56.119H737.375L737.435 64.419H672.955Z" stroke="black" stroke-opacity="0.05" stroke-miterlimit="10"/>
<path d="M675.795 56.119L678.385 48.529H737.315L737.375 56.119H675.795Z" stroke="black" stroke-opacity="0.05" stroke-miterlimit="10"/>
<path d="M678.385 48.529L680.775 41.569H737.265L737.315 48.529H678.385Z" stroke="black" stroke-opacity="0.05" stroke-miterlimit="10"/>
<path d="M680.775 41.569L682.965 35.159H737.215L737.265 41.569H680.775Z" stroke="black" stroke-opacity="0.05" stroke-miterlimit="10"/>
<path d="M682.965 35.159L684.985 29.239H737.175L737.215 35.159H682.965Z" stroke="black" stroke-opacity="0.05" stroke-miterlimit="10"/>
<path d="M684.985 29.239L686.865 23.749H737.135L737.175 29.239H684.985Z" stroke="black" stroke-opacity="0.05" stroke-miterlimit="10"/>
<path d="M686.865 23.749L688.615 18.659H737.095L737.135 23.749H686.865Z" stroke="black" stroke-opacity="0.05" stroke-miterlimit="10"/>
<path d="M688.615 18.659L690.235 13.909H737.055L737.095 18.659H688.615Z" stroke="black" stroke-opacity="0.05" stroke-miterlimit="10"/>
<path d="M690.235 13.909L691.755 9.47903H737.025L737.055 13.909H690.235Z" stroke="black" stroke-opacity="0.05" stroke-miterlimit="10"/>
<path d="M691.755 9.47903L693.175 5.32903H736.995L737.025 9.47903H691.755Z" stroke="black" stroke-opacity="0.05" stroke-miterlimit="10"/>
<path d="M693.175 5.32903L694.505 1.43903H736.965L736.995 5.32903H693.175Z" stroke="black" stroke-opacity="0.05" stroke-miterlimit="10"/>
<path d="M739.635 356.599L739.245 304.829H887.805L906.305 356.599H739.635Z" stroke="black" stroke-opacity="0.05" stroke-miterlimit="10"/>
<path d="M739.245 304.829L738.935 263.199H872.935L887.805 304.829H739.245Z" stroke="black" stroke-opacity="0.05" stroke-miterlimit="10"/>
<path d="M738.935 263.199L738.675 228.999H860.715L872.935 263.199H738.935Z" stroke="black" stroke-opacity="0.05" stroke-miterlimit="10"/>
<path d="M738.675 228.999L738.465 200.409H850.505L860.715 228.999H738.675Z" stroke="black" stroke-opacity="0.05" stroke-miterlimit="10"/>
<path d="M738.465 200.409L738.275 176.139H841.835L850.505 200.409H738.465Z" stroke="black" stroke-opacity="0.05" stroke-miterlimit="10"/>
<path d="M738.275 176.139L738.125 155.299H834.385L841.835 176.139H738.275Z" stroke="black" stroke-opacity="0.05" stroke-miterlimit="10"/>
<path d="M738.125 155.299L737.985 137.189H827.915L834.385 155.299H738.125Z" stroke="black" stroke-opacity="0.05" stroke-miterlimit="10"/>
<path d="M737.985 137.189L737.865 121.319H822.255L827.915 137.189H737.985Z" stroke="black" stroke-opacity="0.05" stroke-miterlimit="10"/>
<path d="M737.865 121.319L737.765 107.299H817.235L822.255 121.319H737.865Z" stroke="black" stroke-opacity="0.05" stroke-miterlimit="10"/>
<path d="M737.765 107.299L737.665 94.809H812.775L817.235 107.299H737.765Z" stroke="black" stroke-opacity="0.05" stroke-miterlimit="10"/>
<path d="M737.665 94.809L737.585 83.629H808.785L812.775 94.809H737.665Z" stroke="black" stroke-opacity="0.05" stroke-miterlimit="10"/>
<path d="M737.585 83.629L737.505 73.549H805.185L808.785 83.629H737.585Z" stroke="black" stroke-opacity="0.05" stroke-miterlimit="10"/>
<path d="M737.505 73.549L737.435 64.419H801.925L805.185 73.549H737.505Z" stroke="black" stroke-opacity="0.05" stroke-miterlimit="10"/>
<path d="M737.435 64.419L737.375 56.119H798.955L801.925 64.419H737.435Z" stroke="black" stroke-opacity="0.05" stroke-miterlimit="10"/>
<path d="M737.375 56.119L737.315 48.529H796.245L798.955 56.119H737.375Z" stroke="black" stroke-opacity="0.05" stroke-miterlimit="10"/>
<path d="M737.315 48.529L737.265 41.569H793.755L796.245 48.529H737.315Z" stroke="black" stroke-opacity="0.05" stroke-miterlimit="10"/>
<path d="M737.265 41.569L737.215 35.159H791.465L793.755 41.569H737.265Z" stroke="black" stroke-opacity="0.05" stroke-miterlimit="10"/>
<path d="M737.215 35.159L737.175 29.239H789.355L791.465 35.159H737.215Z" stroke="black" stroke-opacity="0.05" stroke-miterlimit="10"/>
<path d="M737.175 29.239L737.135 23.749H787.395L789.355 29.239H737.175Z" stroke="black" stroke-opacity="0.05" stroke-miterlimit="10"/>
<path d="M737.135 23.749L737.095 18.659H785.575L787.395 23.749H737.135Z" stroke="black" stroke-opacity="0.05" stroke-miterlimit="10"/>
<path d="M737.095 18.659L737.055 13.909H783.875L785.575 18.659H737.095Z" stroke="black" stroke-opacity="0.05" stroke-miterlimit="10"/>
<path d="M737.055 13.909L737.025 9.47903H782.295L783.875 13.909H737.055Z" stroke="black" stroke-opacity="0.05" stroke-miterlimit="10"/>
<path d="M737.025 9.47903L736.995 5.32903H780.815L782.295 9.47903H737.025Z" stroke="black" stroke-opacity="0.05" stroke-miterlimit="10"/>
<path d="M736.995 5.32903L736.965 1.43903H779.425L780.815 5.32903H736.995Z" stroke="black" stroke-opacity="0.05" stroke-miterlimit="10"/>
<path d="M906.305 356.599L887.805 304.829H1036.36L1072.97 356.599H906.305Z" stroke="black" stroke-opacity="0.05" stroke-miterlimit="10"/>
<path d="M887.805 304.829L872.935 263.199H1006.93L1036.36 304.829H887.805Z" stroke="black" stroke-opacity="0.05" stroke-miterlimit="10"/>
<path d="M872.935 263.199L860.715 228.999H982.755L1006.93 263.199H872.935Z" stroke="black" stroke-opacity="0.05" stroke-miterlimit="10"/>
<path d="M860.715 228.999L850.505 200.409H962.545L982.755 228.999H860.715Z" stroke="black" stroke-opacity="0.05" stroke-miterlimit="10"/>
<path d="M850.505 200.409L841.835 176.139H945.395L962.545 200.409H850.505Z" stroke="black" stroke-opacity="0.05" stroke-miterlimit="10"/>
<path d="M841.835 176.139L834.385 155.299H930.655L945.395 176.139H841.835Z" stroke="black" stroke-opacity="0.05" stroke-miterlimit="10"/>
<path d="M834.385 155.299L827.915 137.189H917.855L930.655 155.299H834.385Z" stroke="black" stroke-opacity="0.05" stroke-miterlimit="10"/>
<path d="M827.915 137.189L822.255 121.319H906.635L917.855 137.189H827.915Z" stroke="black" stroke-opacity="0.05" stroke-miterlimit="10"/>
<path d="M822.255 121.319L817.235 107.299H896.715L906.635 121.319H822.255Z" stroke="black" stroke-opacity="0.05" stroke-miterlimit="10"/>
<path d="M817.235 107.299L812.775 94.809H887.895L896.715 107.299H817.235Z" stroke="black" stroke-opacity="0.05" stroke-miterlimit="10"/>
<path d="M812.775 94.809L808.785 83.629H879.985L887.895 94.809H812.775Z" stroke="black" stroke-opacity="0.05" stroke-miterlimit="10"/>
<path d="M808.785 83.629L805.185 73.549H872.865L879.985 83.629H808.785Z" stroke="black" stroke-opacity="0.05" stroke-miterlimit="10"/>
<path d="M805.185 73.549L801.925 64.419H866.405L872.865 73.549H805.185Z" stroke="black" stroke-opacity="0.05" stroke-miterlimit="10"/>
<path d="M801.925 64.419L798.955 56.119H860.535L866.405 64.419H801.925Z" stroke="black" stroke-opacity="0.05" stroke-miterlimit="10"/>
<path d="M798.955 56.119L796.245 48.529H855.175L860.535 56.119H798.955Z" stroke="black" stroke-opacity="0.05" stroke-miterlimit="10"/>
<path d="M796.245 48.529L793.755 41.569H850.255L855.175 48.529H796.245Z" stroke="black" stroke-opacity="0.05" stroke-miterlimit="10"/>
<path d="M793.755 41.569L791.465 35.159H845.725L850.255 41.569H793.755Z" stroke="black" stroke-opacity="0.05" stroke-miterlimit="10"/>
<path d="M791.465 35.159L789.355 29.239H841.535L845.725 35.159H791.465Z" stroke="black" stroke-opacity="0.05" stroke-miterlimit="10"/>
<path d="M789.355 29.239L787.395 23.749H837.655L841.535 29.239H789.355Z" stroke="black" stroke-opacity="0.05" stroke-miterlimit="10"/>
<path d="M787.395 23.749L785.575 18.659H834.055L837.655 23.749H787.395Z" stroke="black" stroke-opacity="0.05" stroke-miterlimit="10"/>
<path d="M785.575 18.659L783.875 13.909H830.695L834.055 18.659H785.575Z" stroke="black" stroke-opacity="0.05" stroke-miterlimit="10"/>
<path d="M783.875 13.909L782.295 9.47903H827.565L830.695 13.909H783.875Z" stroke="black" stroke-opacity="0.05" stroke-miterlimit="10"/>
<path d="M782.295 9.47903L780.815 5.32903H824.635L827.565 9.47903H782.295Z" stroke="black" stroke-opacity="0.05" stroke-miterlimit="10"/>
<path d="M780.815 5.32903L779.425 1.43903H821.885L824.635 5.32903H780.815Z" stroke="black" stroke-opacity="0.05" stroke-miterlimit="10"/>
<path d="M1072.97 356.599L1036.36 304.829H1184.92L1239.63 356.599H1072.97Z" stroke="black" stroke-opacity="0.05" stroke-miterlimit="10"/>
<path d="M1036.36 304.829L1006.93 263.199H1140.93L1184.92 304.829H1036.36Z" stroke="black" stroke-opacity="0.05" stroke-miterlimit="10"/>
<path d="M1006.93 263.199L982.755 228.999H1104.8L1140.93 263.199H1006.93Z" stroke="black" stroke-opacity="0.05" stroke-miterlimit="10"/>
<path d="M982.755 228.999L962.545 200.409H1074.58L1104.8 228.999H982.755Z" stroke="black" stroke-opacity="0.05" stroke-miterlimit="10"/>
<path d="M962.545 200.409L945.395 176.139H1048.94L1074.58 200.409H962.545Z" stroke="black" stroke-opacity="0.05" stroke-miterlimit="10"/>
<path d="M945.395 176.139L930.655 155.299H1026.91L1048.94 176.139H945.395Z" stroke="black" stroke-opacity="0.05" stroke-miterlimit="10"/>
<path d="M930.655 155.299L917.855 137.189H1007.78L1026.91 155.299H930.655Z" stroke="black" stroke-opacity="0.05" stroke-miterlimit="10"/>
<path d="M917.855 137.189L906.635 121.319H991.015L1007.78 137.189H917.855Z" stroke="black" stroke-opacity="0.05" stroke-miterlimit="10"/>
<path d="M906.635 121.319L896.715 107.299H976.195L991.015 121.319H906.635Z" stroke="black" stroke-opacity="0.05" stroke-miterlimit="10"/>
<path d="M896.715 107.299L887.895 94.809H963.005L976.195 107.299H896.715Z" stroke="black" stroke-opacity="0.05" stroke-miterlimit="10"/>
<path d="M887.895 94.809L879.985 83.629H951.185L963.005 94.809H887.895Z" stroke="black" stroke-opacity="0.05" stroke-miterlimit="10"/>
<path d="M879.985 83.629L872.865 73.549H940.545L951.185 83.629H879.985Z" stroke="black" stroke-opacity="0.05" stroke-miterlimit="10"/>
<path d="M872.865 73.549L866.405 64.419H930.895L940.545 73.549H872.865Z" stroke="black" stroke-opacity="0.05" stroke-miterlimit="10"/>
<path d="M866.405 64.419L860.535 56.119H922.125L930.895 64.419H866.405Z" stroke="black" stroke-opacity="0.05" stroke-miterlimit="10"/>
<path d="M860.535 56.119L855.175 48.529H914.105L922.125 56.119H860.535Z" stroke="black" stroke-opacity="0.05" stroke-miterlimit="10"/>
<path d="M855.175 48.529L850.255 41.569H906.745L914.105 48.529H855.175Z" stroke="black" stroke-opacity="0.05" stroke-miterlimit="10"/>
<path d="M850.255 41.569L845.725 35.159H899.975L906.745 41.569H850.255Z" stroke="black" stroke-opacity="0.05" stroke-miterlimit="10"/>
<path d="M845.725 35.159L841.535 29.239H893.715L899.975 35.159H845.725Z" stroke="black" stroke-opacity="0.05" stroke-miterlimit="10"/>
<path d="M841.535 29.239L837.655 23.749H887.925L893.715 29.239H841.535Z" stroke="black" stroke-opacity="0.05" stroke-miterlimit="10"/>
<path d="M837.655 23.749L834.055 18.659H882.535L887.925 23.749H837.655Z" stroke="black" stroke-opacity="0.05" stroke-miterlimit="10"/>
<path d="M834.055 18.659L830.695 13.909H877.525L882.535 18.659H834.055Z" stroke="black" stroke-opacity="0.05" stroke-miterlimit="10"/>
<path d="M830.695 13.909L827.565 9.47903H872.835L877.525 13.909H830.695Z" stroke="black" stroke-opacity="0.05" stroke-miterlimit="10"/>
<path d="M827.565 9.47903L824.635 5.32903H868.455L872.835 9.47903H827.565Z" stroke="black" stroke-opacity="0.05" stroke-miterlimit="10"/>
<path d="M824.635 5.32903L821.885 1.43903H864.345L868.455 5.32903H824.635Z" stroke="black" stroke-opacity="0.05" stroke-miterlimit="10"/>
<path d="M1239.63 356.599L1184.92 304.829H1333.48L1406.3 356.599H1239.63Z" stroke="black" stroke-opacity="0.05" stroke-miterlimit="10"/>
<path d="M1184.92 304.829L1140.93 263.199H1274.93L1333.48 304.829H1184.92Z" stroke="black" stroke-opacity="0.05" stroke-miterlimit="10"/>
<path d="M1140.93 263.199L1104.8 228.999H1226.84L1274.93 263.199H1140.93Z" stroke="black" stroke-opacity="0.05" stroke-miterlimit="10"/>
<path d="M1104.8 228.999L1074.58 200.409H1186.62L1226.84 228.999H1104.8Z" stroke="black" stroke-opacity="0.05" stroke-miterlimit="10"/>
<path d="M1074.58 200.409L1048.94 176.139H1152.5L1186.62 200.409H1074.58Z" stroke="black" stroke-opacity="0.05" stroke-miterlimit="10"/>
<path d="M1048.94 176.139L1026.91 155.299H1123.18L1152.5 176.139H1048.94Z" stroke="black" stroke-opacity="0.05" stroke-miterlimit="10"/>
<path d="M1026.91 155.299L1007.78 137.189H1097.72L1123.18 155.299H1026.91Z" stroke="black" stroke-opacity="0.05" stroke-miterlimit="10"/>
<path d="M1007.78 137.189L991.015 121.319H1075.4L1097.72 137.189H1007.78Z" stroke="black" stroke-opacity="0.05" stroke-miterlimit="10"/>
<path d="M991.015 121.319L976.195 107.299H1055.67L1075.4 121.319H991.015Z" stroke="black" stroke-opacity="0.05" stroke-miterlimit="10"/>
<path d="M976.195 107.299L963.005 94.809H1038.12L1055.67 107.299H976.195Z" stroke="black" stroke-opacity="0.05" stroke-miterlimit="10"/>
<path d="M963.005 94.809L951.185 83.629H1022.39L1038.12 94.809H963.005Z" stroke="black" stroke-opacity="0.05" stroke-miterlimit="10"/>
<path d="M951.185 83.629L940.545 73.549H1008.21L1022.39 83.629H951.185Z" stroke="black" stroke-opacity="0.05" stroke-miterlimit="10"/>
<path d="M940.545 73.549L930.895 64.419H995.385L1008.21 73.549H940.545Z" stroke="black" stroke-opacity="0.05" stroke-miterlimit="10"/>
<path d="M930.895 64.419L922.125 56.119H983.705L995.385 64.419H930.895Z" stroke="black" stroke-opacity="0.05" stroke-miterlimit="10"/>
<path d="M922.125 56.119L914.105 48.529H973.035L983.705 56.119H922.125Z" stroke="black" stroke-opacity="0.05" stroke-miterlimit="10"/>
<path d="M914.105 48.529L906.745 41.569H963.235L973.035 48.529H914.105Z" stroke="black" stroke-opacity="0.05" stroke-miterlimit="10"/>
<path d="M906.745 41.569L899.975 35.159H954.225L963.235 41.569H906.745Z" stroke="black" stroke-opacity="0.05" stroke-miterlimit="10"/>
<path d="M899.975 35.159L893.715 29.239H945.895L954.225 35.159H899.975Z" stroke="black" stroke-opacity="0.05" stroke-miterlimit="10"/>
<path d="M893.715 29.239L887.925 23.749H938.185L945.895 29.239H893.715Z" stroke="black" stroke-opacity="0.05" stroke-miterlimit="10"/>
<path d="M887.925 23.749L882.535 18.659H931.015L938.185 23.749H887.925Z" stroke="black" stroke-opacity="0.05" stroke-miterlimit="10"/>
<path d="M882.535 18.659L877.525 13.909H924.345L931.015 18.659H882.535Z" stroke="black" stroke-opacity="0.05" stroke-miterlimit="10"/>
<path d="M877.525 13.909L872.835 9.47903H918.105L924.345 13.909H877.525Z" stroke="black" stroke-opacity="0.05" stroke-miterlimit="10"/>
<path d="M872.835 9.47903L868.455 5.32903H912.275L918.105 9.47903H872.835Z" stroke="black" stroke-opacity="0.05" stroke-miterlimit="10"/>
<path d="M868.455 5.32903L864.345 1.43903H906.805L912.275 5.32903H868.455Z" stroke="black" stroke-opacity="0.05" stroke-miterlimit="10"/>
<path d="M1406.3 356.599L1333.48 304.829H1482.04L1572.97 356.599H1406.3Z" stroke="black" stroke-opacity="0.05" stroke-miterlimit="10"/>
<path d="M1333.48 304.829L1274.93 263.199H1408.93L1482.04 304.829H1333.48Z" stroke="black" stroke-opacity="0.05" stroke-miterlimit="10"/>
<path d="M1274.93 263.199L1226.84 228.999H1348.88L1408.93 263.199H1274.93Z" stroke="black" stroke-opacity="0.05" stroke-miterlimit="10"/>
<path d="M1226.84 228.999L1186.62 200.409H1298.66L1348.88 228.999H1226.84Z" stroke="black" stroke-opacity="0.05" stroke-miterlimit="10"/>
<path d="M1186.62 200.409L1152.5 176.139H1256.06L1298.66 200.409H1186.62Z" stroke="black" stroke-opacity="0.05" stroke-miterlimit="10"/>
<path d="M1152.5 176.139L1123.18 155.299H1219.45L1256.06 176.139H1152.5Z" stroke="black" stroke-opacity="0.05" stroke-miterlimit="10"/>
<path d="M1123.18 155.299L1097.72 137.189H1187.65L1219.45 155.299H1123.18Z" stroke="black" stroke-opacity="0.05" stroke-miterlimit="10"/>
<path d="M1097.72 137.189L1075.4 121.319H1159.78L1187.65 137.189H1097.72Z" stroke="black" stroke-opacity="0.05" stroke-miterlimit="10"/>
<path d="M1075.4 121.319L1055.67 107.299H1135.15L1159.78 121.319H1075.4Z" stroke="black" stroke-opacity="0.05" stroke-miterlimit="10"/>
<path d="M1055.67 107.299L1038.12 94.809H1113.23L1135.15 107.299H1055.67Z" stroke="black" stroke-opacity="0.05" stroke-miterlimit="10"/>
<path d="M1038.12 94.809L1022.39 83.629H1093.59L1113.23 94.809H1038.12Z" stroke="black" stroke-opacity="0.05" stroke-miterlimit="10"/>
<path d="M1022.39 83.629L1008.21 73.549H1075.89L1093.59 83.629H1022.39Z" stroke="black" stroke-opacity="0.05" stroke-miterlimit="10"/>
<path d="M1008.21 73.549L995.385 64.419H1059.86L1075.89 73.549H1008.21Z" stroke="black" stroke-opacity="0.05" stroke-miterlimit="10"/>
<path d="M995.385 64.419L983.705 56.119H1045.28L1059.86 64.419H995.385Z" stroke="black" stroke-opacity="0.05" stroke-miterlimit="10"/>
<path d="M983.705 56.119L973.035 48.529H1031.95L1045.28 56.119H983.705Z" stroke="black" stroke-opacity="0.05" stroke-miterlimit="10"/>
<path d="M973.035 48.529L963.235 41.569H1019.73L1031.95 48.529H973.035Z" stroke="black" stroke-opacity="0.05" stroke-miterlimit="10"/>
<path d="M963.235 41.569L954.225 35.159H1008.47L1019.73 41.569H963.235Z" stroke="black" stroke-opacity="0.05" stroke-miterlimit="10"/>
<path d="M954.225 35.159L945.895 29.239H998.085L1008.47 35.159H954.225Z" stroke="black" stroke-opacity="0.05" stroke-miterlimit="10"/>
<path d="M945.895 29.239L938.185 23.749H988.445L998.085 29.239H945.895Z" stroke="black" stroke-opacity="0.05" stroke-miterlimit="10"/>
<path d="M938.185 23.749L931.015 18.659H979.505L988.445 23.749H938.185Z" stroke="black" stroke-opacity="0.05" stroke-miterlimit="10"/>
<path d="M931.015 18.659L924.345 13.909H971.165L979.505 18.659H931.015Z" stroke="black" stroke-opacity="0.05" stroke-miterlimit="10"/>
<path d="M924.345 13.909L918.105 9.47903H963.385L971.165 13.909H924.345Z" stroke="black" stroke-opacity="0.05" stroke-miterlimit="10"/>
<path d="M918.105 9.47903L912.275 5.32903H956.095L963.385 9.47903H918.105Z" stroke="black" stroke-opacity="0.05" stroke-miterlimit="10"/>
<path d="M912.275 5.32903L906.805 1.43903H949.265L956.095 5.32903H912.275Z" stroke="black" stroke-opacity="0.05" stroke-miterlimit="10"/>
<path d="M1482.04 304.829L1408.93 263.199H1542.94L1630.6 304.829H1482.04Z" stroke="black" stroke-opacity="0.05" stroke-miterlimit="10"/>
<path d="M1408.93 263.199L1348.88 228.999H1470.92L1542.94 263.199H1408.93Z" stroke="black" stroke-opacity="0.05" stroke-miterlimit="10"/>
<path d="M1348.88 228.999L1298.66 200.409H1410.71L1470.92 228.999H1348.88Z" stroke="black" stroke-opacity="0.05" stroke-miterlimit="10"/>
<path d="M1298.66 200.409L1256.06 176.139H1359.61L1410.71 200.409H1298.66Z" stroke="black" stroke-opacity="0.05" stroke-miterlimit="10"/>
<path d="M1256.06 176.139L1219.45 155.299H1315.71L1359.61 176.139H1256.06Z" stroke="black" stroke-opacity="0.05" stroke-miterlimit="10"/>
<path d="M1219.45 155.299L1187.65 137.189H1277.59L1315.71 155.299H1219.45Z" stroke="black" stroke-opacity="0.05" stroke-miterlimit="10"/>
<path d="M1187.65 137.189L1159.78 121.319H1244.17L1277.59 137.189H1187.65Z" stroke="black" stroke-opacity="0.05" stroke-miterlimit="10"/>
<path d="M1159.78 121.319L1135.15 107.299H1214.63L1244.17 121.319H1159.78Z" stroke="black" stroke-opacity="0.05" stroke-miterlimit="10"/>
<path d="M1135.15 107.299L1113.23 94.809H1188.34L1214.63 107.299H1135.15Z" stroke="black" stroke-opacity="0.05" stroke-miterlimit="10"/>
<path d="M1113.23 94.809L1093.59 83.629H1164.79L1188.34 94.809H1113.23Z" stroke="black" stroke-opacity="0.05" stroke-miterlimit="10"/>
<path d="M1093.59 83.629L1075.89 73.549H1143.57L1164.79 83.629H1093.59Z" stroke="black" stroke-opacity="0.05" stroke-miterlimit="10"/>
<path d="M1075.89 73.549L1059.86 64.419H1124.35L1143.57 73.549H1075.89Z" stroke="black" stroke-opacity="0.05" stroke-miterlimit="10"/>
<path d="M1059.86 64.419L1045.28 56.119H1106.86L1124.35 64.419H1059.86Z" stroke="black" stroke-opacity="0.05" stroke-miterlimit="10"/>
<path d="M1045.28 56.119L1031.95 48.529H1090.88L1106.86 56.119H1045.28Z" stroke="black" stroke-opacity="0.05" stroke-miterlimit="10"/>
<path d="M1031.95 48.529L1019.73 41.569H1076.22L1090.88 48.529H1031.95Z" stroke="black" stroke-opacity="0.05" stroke-miterlimit="10"/>
<path d="M1019.73 41.569L1008.47 35.159H1062.73L1076.22 41.569H1019.73Z" stroke="black" stroke-opacity="0.05" stroke-miterlimit="10"/>
<path d="M1008.47 35.159L998.085 29.239H1050.26L1062.73 35.159H1008.47Z" stroke="black" stroke-opacity="0.05" stroke-miterlimit="10"/>
<path d="M998.085 29.239L988.445 23.749H1038.71L1050.26 29.239H998.085Z" stroke="black" stroke-opacity="0.05" stroke-miterlimit="10"/>
<path d="M988.445 23.749L979.505 18.659H1027.98L1038.71 23.749H988.445Z" stroke="black" stroke-opacity="0.05" stroke-miterlimit="10"/>
<path d="M979.505 18.659L971.165 13.909H1017.98L1027.98 18.659H979.505Z" stroke="black" stroke-opacity="0.05" stroke-miterlimit="10"/>
<path d="M971.165 13.909L963.385 9.47903H1008.65L1017.98 13.909H971.165Z" stroke="black" stroke-opacity="0.05" stroke-miterlimit="10"/>
<path d="M963.385 9.47903L956.095 5.32903H999.915L1008.65 9.47903H963.385Z" stroke="black" stroke-opacity="0.05" stroke-miterlimit="10"/>
<path d="M956.095 5.32903L949.265 1.43903H991.725L999.915 5.32903H956.095Z" stroke="black" stroke-opacity="0.05" stroke-miterlimit="10"/>
</svg>
